<?xml version="1.0" encoding="utf-8"?>
<!-- Generator: Adobe Illustrator 24.3.0, SVG Export Plug-In . SVG Version: 6.00 Build 0)  -->
<svg version="1.1" id="圖層_1" xmlns="http://www.w3.org/2000/svg" xmlns:xlink="http://www.w3.org/1999/xlink" x="0px" y="0px"
	 viewBox="0 0 50 50" style="enable-background:new 0 0 50 50;" xml:space="preserve">
<g>
	<path d="M25,50c-5.7,0-11.4,0-17.1,0c-3.2,0-5.2-2.1-5.3-5.3c-0.1-3.2,0.2-6.3,1.5-9.3C6,31.3,9,28.1,13,26
		c0.5-0.3,0.9-0.3,1.3,0.1c6.4,5.2,15.1,5.2,21.4,0c0.4-0.3,0.7-0.4,1.2-0.1c6.4,3.5,9.9,8.8,10.4,16.1c0.1,0.9,0,1.7,0,2.6
		c0,3.3-2,5.3-5.3,5.3C36.3,50,30.7,50,25,50z"/>
	<path d="M25.1,0c7.3,0,13.2,6,13.2,13.2c0,7.4-6,13.2-13.3,13.2c-7.2,0-13.1-6-13.1-13.3C11.8,5.9,17.8,0,25.1,0z"/>
</g>
</svg>
